<?xml version="1.0" encoding="UTF-8"?>
<svg id="Capa_1" xmlns="http://www.w3.org/2000/svg" version="1.1" viewBox="0 0 951.83 364.25">
  <!-- Generator: Adobe Illustrator 30.6.0, SVG Export Plug-In . SVG Version: 2.1.4 Build 109)  -->
  <defs>
    <style>
      .st0 {
        fill: #fff;
      }

      .st1 {
        fill: #1d1d1b;
      }
    </style>
  </defs>
  <g>
    <path class="st0" d="M139.82,2.36c-27.48,0-54.84,17.15-66.52,41.71C45.2,103.13-1.36,213.95,2.59,292.52c1.69,33.69,31.97,53.82,60.26,53.82.82,0,1.65-.02,2.46-.05,15.61-.64,29.41-6.7,39.89-17.53,8.03-8.29,14.04-19.36,17.88-32.89l3.23-11.41,22.43,14.77c.32,12.47,3.72,23.61,10.15,33.28,8.52,12.8,25.97,28.06,60.71,28.06,9.99,0,20.78-1.2,32.99-3.67l72.33-14.65c8.13,8.27,18.89,13.47,30.92,14.4l21.61,1.68c1.14.09,2.29.13,3.44.13,5.24,0,10.6-.93,15.98-2.76l2.89,2.33,8.75.67,39.35,3.02c1.1.08,2.23.13,3.35.13,15.3,0,29.53-7.72,38.29-19.59,8.79,10.82,23.51,18.29,37.75,18.71l30.14.89h.42s.52.01.52.01c18.31,0,33.45-16.31,37.92-24.2l14.68-25.97,58.88-2.64c4.13,4.29,9.48,8.19,16.43,11.18.08.12.15.24.23.35,4.5,6.98,12.87,19.98,30.82,25.33,3.62,1.08,7.49,1.63,11.49,1.63,10.92,0,23.13-4.2,31.85-10.95l56.84-44.04,62.57,26.25c6.48,2.72,13.18,4.09,19.94,4.09,14.33,0,27.83-6.44,37.05-17.67,14.93-18.2,10.58-36.64,7.97-47.66-1.24-5.24-2.3-9.76-2.24-15.34l.82-69.14c7.72-14.72,7.96-32.33.17-48.23l-2.25-4.58-3.71-3.51-22.75-21.52c-10.13-9.58-23.2-15.07-35.85-15.07-10.56,0-20.48,3.64-28.7,10.51l-49.11,41.11-36.62-23.36c-7.4-4.72-16.32-7.21-25.8-7.21-2.47,0-4.92.17-7.33.51-3.96-4.22-9.46-9.08-17.18-14.6-5.58-3.99-19.92-13.65-32.58-17.16-3.37-.93-6.86-1.41-10.37-1.41-13.49,0-24,6.74-31.62,13.16-9.57-4.67-19.86-7.1-30.29-7.1-17.96,0-34.95,7.49-47.31,20.71-17.43,11.6-35.35,19.49-53.46,23.58l-.05-.08-2.75-3.95-3.9-2.82c-5.23-3.78-11.18-6.42-17.77-7.91-5.2-24.66-22.54-45.7-47.74-54.75-5.12-1.84-10.6-2.77-16.3-2.77-12.01,0-24.11,4.16-33.19,11.4-5.21,4.16-9.65,9.47-13.06,15.4l-8.04-17.16c-7.34-15.68-20.36-26.92-34.81-30.07-2.85-.62-5.9-.94-9.05-.94-11.72,0-27.67,4.21-37.19,15.72-9.18-7.6-21.22-12.23-32.67-12.23-2.64,0-5.26.24-7.8.7-16.6,3.05-32.12,6.69-47.65,11.24-3.3-8.6-8.64-16.42-15.93-22.96-11.24-10.09-25.45-15.42-41.08-15.42h0Z"/>
    <path class="st1" d="M558.32,364.25l-1.02-.02-30.13-.89c-13.73-.41-28.17-7.14-37.59-17.36-9.53,11.47-23.67,18.24-38.38,18.24-1.18,0-2.36-.05-3.53-.13l-48.84-3.75-2.46-1.99c-6.46,2.04-12.89,2.82-19.11,2.34l-21.6-1.68c-11.84-.92-22.98-5.94-31.5-14.19l-71.09,14.4c-12.36,2.5-23.3,3.72-33.45,3.72-35.78,0-53.83-15.83-62.67-29.11-6.45-9.69-9.98-20.88-10.5-33.29l-18.72-12.33-2.35,8.31c-3.94,13.91-10.15,25.31-18.45,33.88-10.92,11.27-25.26,17.58-41.49,18.24-.85.04-1.7.05-2.56.05-29.39,0-60.85-20.97-62.61-56.06C-3.74,213.55,42.97,102.32,71.17,43.06,83.23,17.71,111.46,0,139.82,0c16.22,0,30.97,5.54,42.65,16.02,6.93,6.22,12.22,13.57,15.75,21.86,14.76-4.25,29.78-7.76,45.83-10.7,13.47-2.47,28.74,1.58,40.61,10.61,10.2-10.9,25.85-14.84,37.48-14.84,3.32,0,6.54.33,9.55.99,15.17,3.31,28.79,15.04,36.45,31.38l6.2,13.25c3.21-4.74,7.06-8.95,11.29-12.32,9.49-7.57,22.12-11.92,34.66-11.92,5.97,0,11.72.98,17.09,2.91,24.83,8.92,43.03,29.43,48.93,55.02,6.31,1.6,12.08,4.27,17.16,7.94l4.22,3.05,2.12,3.05c17.21-4.1,34.33-11.74,50.91-22.74,12.91-13.71,30.25-21.26,48.84-21.26,10.31,0,20.38,2.25,29.95,6.68,10.55-8.57,21.02-12.75,31.96-12.75,3.72,0,7.42.5,11,1.49,13.01,3.61,27.64,13.45,33.32,17.51,6.72,4.8,12.33,9.52,16.69,14.03,2.13-.25,4.29-.38,6.45-.38,9.94,0,19.3,2.62,27.07,7.58l35.17,22.43,47.79-40.01c8.65-7.24,19.09-11.06,30.21-11.06,13.25,0,26.91,5.73,37.47,15.72l26.77,25.32,2.44,4.96c7.97,16.24,7.98,34.38.07,49.85l-.81,68.58c-.06,5.29.97,9.67,2.17,14.75,2.71,11.48,7.23,30.63-8.44,49.73-9.67,11.78-23.84,18.54-38.87,18.54-7.07,0-14.08-1.44-20.85-4.28l-61.3-25.71-55.76,43.2c-9.11,7.06-21.87,11.45-33.29,11.45-4.23,0-8.33-.58-12.17-1.73-18.57-5.54-27.27-18.77-31.97-26.07-6.08-2.7-11.38-6.29-15.77-10.66l-56.53,2.54-14.04,24.83c-4.68,8.29-20.62,25.4-39.97,25.4ZM489.4,338.43l1.92,2.36c8.47,10.44,22.6,17.44,36,17.84l30.56.91h.45c17.27,0,31.62-15.5,35.87-23.01l15.32-27.11,61.25-2.75.74.77c4.26,4.43,9.53,8.01,15.66,10.65l.66.29.52.81c4.43,6.87,12.5,19.39,29.61,24.5,3.4,1.01,7.04,1.53,10.82,1.53,10.43,0,22.08-4.01,30.41-10.46l57.93-44.88,63.83,26.78c6.19,2.6,12.59,3.91,19.03,3.91,13.62,0,26.46-6.13,35.22-16.82,14.19-17.29,10-35.02,7.5-45.62-1.28-5.41-2.37-10.05-2.3-15.92l.83-69.71.26-.5c7.47-14.24,7.52-31.04.14-46.1l-2.06-4.2-26.15-24.73c-9.69-9.17-22.17-14.43-34.23-14.43-10,0-19.39,3.45-27.18,9.97l-50.43,42.22-38.08-24.29c-7.01-4.47-15.5-6.84-24.53-6.84-2.35,0-4.7.16-7.01.49l-1.21.17-.83-.89c-4.27-4.55-9.93-9.36-16.83-14.3-5.48-3.92-19.55-13.4-31.84-16.81-3.17-.88-6.45-1.32-9.74-1.32-10.33,0-19.89,4.01-30.1,12.61l-1.17.99-1.38-.67c-9.33-4.55-19.18-6.86-29.26-6.86-17.37,0-33.56,7.09-45.59,19.96l-.42.35c-17.62,11.72-35.88,19.77-54.25,23.92l-1.55.35-3.47-5-3.57-2.58c-4.96-3.58-10.64-6.11-16.9-7.52l-1.48-.33-.31-1.48c-5.2-24.66-22.48-44.49-46.24-53.02-4.86-1.75-10.08-2.63-15.5-2.63-11.49,0-23.05,3.97-31.72,10.89-4.85,3.87-9.17,8.97-12.48,14.73l-2.26,3.92-9.96-21.26c-7.03-15.02-19.44-25.78-33.18-28.77-2.69-.59-5.57-.88-8.55-.88-11.16,0-26.31,3.91-35.38,14.87l-1.5,1.82-1.81-1.5c-8.84-7.32-20.49-11.69-31.17-11.69-2.5,0-4.98.22-7.38.66-16.64,3.06-32.15,6.72-47.41,11.19l-2.08.61-.78-2.03c-3.23-8.42-8.38-15.84-15.31-22.06-10.8-9.69-24.47-14.82-39.51-14.82-26.61,0-53.09,16.6-64.4,40.37C47.42,103.94,1.02,214.35,4.94,292.4c1.62,32.29,30.72,51.58,57.91,51.58.79,0,1.58-.02,2.36-.05,15-.61,28.24-6.43,38.3-16.81,7.75-8.01,13.58-18.74,17.3-31.89l4.11-14.5,26.14,17.21.03,1.23c.31,12,3.6,22.78,9.76,32.03,8.2,12.32,25.06,27.01,58.75,27.01,9.84,0,20.48-1.19,32.52-3.63l73.58-14.9.9.91c7.95,8.09,18.13,12.83,29.42,13.71l21.61,1.68c6.02.48,12.2-.38,18.47-2.51l1.23-.42,3.33,2.68,47.37,3.64c1.04.08,2.11.12,3.17.12,14.18,0,27.78-6.97,36.39-18.63l1.81-2.45Z"/>
  </g>
  <path d="M918.35,141.68c4.56,9.29,3.79,19.39-2.95,27.26l-.92,77.33c-.27,22.75,10.73,33.16.67,45.42-6.2,7.56-15.49,9.1-24.2,5.45l-77.77-32.63-69.88,54.14c-4.45,3.45-12.77,6.13-17.96,4.58-14.46-4.31-15.08-20.21-25.12-23.49-7.08-2.32-12.68-6.1-15.07-15.27l-91.15,4.09-22.38,39.6c-2.05,3.62-9.52,9.96-13.42,9.85l-30.14-.89c-7.02-.21-14.93-5.08-17.7-9.75-4.1-6.93-2.09-15.34.53-22.21l14.77-38.77c-18.1-12.57-15.46-23.44-13.08-42.88l-22.77-2.4-19.96,101.79c-1.8,9.18-11.38,15.69-19.87,15.04l-39.35-3.02-10.56-8.52c-6.13,4.75-13.66,8.67-20.47,8.15l-21.61-1.68c-9.74-.76-16.93-8.22-19.34-17.85l-91.7,18.57c-24.89,5.04-52.44,5.85-64.56-12.35-6.39-9.6-6.31-21.07-4.1-31.98l-68.67-45.23-13.74,48.53c-4.73,16.7-13.99,29.15-31.74,29.88-14.84.61-32.45-9.24-33.34-26.95-3.47-69.05,37.15-170.04,68-234.89,10.66-22.4,43.84-34.78,63.21-17.4,11.39,10.22,13.41,25.73,6.44,41.39,27.6-10.57,52.63-17.68,81.12-22.91,7.33-1.35,16.01,3.21,20.19,8.33l19.17,23.5,17.25-29.33c2.58-4.39,13.39-7.17,18.99-5.95,6.46,1.41,12.08,7.7,15.24,14.45l14.35,30.65c3.87,8.27,3.34,15.47-1.18,23.44l-70.22,123.51,76.09-13.07,17.11-64.41c2.6-9.8,15.17-18.48,25.19-13.21,8.07,4.24,13.95,8.25,23.72,14.48l4.75-23.95c-21.59-4.26-35.47-23.21-35.41-45.42.02-7.7,4.78-16.04,9.91-20.13,5.57-4.45,15.01-6.75,22.3-4.13,23.55,8.46,35.24,33.42,28.91,56.88,10.48-2.19,21.85-3.51,29.61,2.09l10.2,14.65c31.04-3.16,59.85-15.33,85.35-32.93,13.63-16.79,36.07-17.94,53.48-5.29l7.26,3.57c5.9,2.9,19.15-21.47,32.45-17.78,11.95,3.31,37.63,21.26,40.77,29.58,2.11,5.61-.25,15.95-3.62,20.4l-13.16,17.38,18.25,46.13,29.77-.62c-10.5-9.01-16.45-14.05-18.85-24.56l-7.7-33.7c-1.41-6.16,2.58-15.9,7.76-19.29,5.66-3.7,15.73-4.29,22.04-.26l54.08,34.49,64.99-54.41c9.01-7.54,20.21-2.99,26.99,3.42l22.75,21.52ZM398.28,248.44l20.63-54.74-24.25-16.05-19.71,76.49-129.38,22.33,91.96-162.22-17.34-36.79-96.64,169.79-32.26-20.65c-23.62-15.12-45.42-30.19-66.15-50.73,41.86-38.4,99.29-56.05,153.82-63.22l-26.86-31.8c-51.05,10.12-93.27,23.42-132.19,58.07l31.26-64.79c2.29-4.75.72-14.65-2.96-17.2-10.43-7.23-28.7,3-33.63,14.28l-23.62,54.03c-11.52,26.36-19.69,52.95-28.17,80.38s-12.55,54.27-13.93,83.14c-.35,7.31,4.9,13.21,11.2,14.11,5.97.85,12.64-3.31,14.54-9.91l22.97-79.56,106.39,69.4c-6.18,8.3-11.3,17.39-6.99,25.56,3.91,7.4,15.61,10.27,24.5,9,48.85-6.94,94.86-17.8,143.17-28.78l-6.67,24.11,25.26,2.35,8.19-30.37,15.81-2.83,6.17-33.9-15.13.5ZM434.51,128.15c9.8-6.34-6.09-33.2-17.62-27.23-9.29,6.16,5.1,34.92,17.62,27.23ZM554.35,318.23l27.25-48.76,114.27-5.21,6.26,13.48c1.12,2.42,10.12,1.27,11.7,3.56l15.68,22.82,80.22-62.06,89.6,37.69c-2.63-10.05-5.11-19.4-5-28.72l1.04-86.51,5.48-12.22-21.66-19.55-74.28,62.72-65.56-41.3,8.02,36.08,37.44,25.92-27.3,17.82-54.74.85-27.46-68.46,20.84-28.19-24.33-16.89-23.85,21.84c-9.59-6.11-14.57-.56-21.31,7.19l-.43-17.17c-6.04-3.47-15.04-6.65-22.25-6.06-29.23,25.13-64.1,40.64-102.31,46.04-13.28,1.88-25.16-5.68-28.87-18.14l-24.65,2.2-31.69,159.16,34.24.65,23.81-123.03c19.52,11.77,41.3,13.74,61.11,4.04l30.26-14.81c5.91-2.89,10.9-4.93,19.12-4.86l-25.72,56.77-28.71-3.6c-.81,2.51-1.36,12.45,1.12,15.03l15.87,16.5-20.88,54.31,27.73.86Z"/>
  <path class="st0" d="M554.35,318.23l-27.73-.86,20.88-54.31-15.87-16.5c-2.48-2.58-1.93-12.52-1.12-15.03l28.71,3.6,25.72-56.77c-8.21-.07-13.21,1.97-19.12,4.86l-30.26,14.81c-19.81,9.69-41.59,7.72-61.11-4.04l-23.81,123.03-34.24-.65,31.69-159.16,24.65-2.2c3.71,12.46,15.6,20.02,28.87,18.14,38.21-5.4,73.08-20.91,102.31-46.04,7.21-.59,16.21,2.59,22.25,6.06l.43,17.17c6.74-7.75,11.72-13.3,21.31-7.19l23.85-21.84,24.33,16.89-20.84,28.19,27.46,68.46,54.74-.85,27.3-17.82-37.44-25.92-8.02-36.08,65.56,41.3,74.28-62.72,21.66,19.55-5.48,12.22-1.04,86.51c-.11,9.31,2.37,18.67,5,28.72l-89.6-37.69-80.22,62.06-15.68-22.82c-1.58-2.29-10.58-1.15-11.7-3.56l-6.26-13.48-114.27,5.21-27.25,48.76ZM684.75,233.46l-28.33-49.3-43.62,49.83,71.95-.53ZM887.62,256.16l-3.44-72.81-50.04,34.29,53.48,38.52ZM747.3,256.03l-26.14.25,7.94,17.19,18.21-17.44Z"/>
  <path class="st0" d="M398.28,248.44l15.13-.5-6.17,33.9-15.81,2.83-8.19,30.37-25.26-2.35,6.67-24.11c-48.31,10.98-94.32,21.84-143.17,28.78-8.89,1.26-20.59-1.61-24.5-9-4.32-8.16.81-17.25,6.99-25.56l-106.39-69.4-22.97,79.56c-1.9,6.6-8.57,10.76-14.54,9.91-6.3-.89-11.55-6.8-11.2-14.11,1.38-28.87,5.45-55.75,13.93-83.14s16.65-54.02,28.17-80.38l23.62-54.03c4.93-11.27,23.19-21.51,33.63-14.28,3.67,2.55,5.25,12.45,2.96,17.2l-31.26,64.79c38.92-34.64,81.14-47.95,132.19-58.07l26.86,31.8c-54.53,7.17-111.96,24.82-153.82,63.22,20.74,20.54,42.53,35.61,66.15,50.73l32.26,20.65,96.64-169.79,17.34,36.79-91.96,162.22,129.38-22.33,19.71-76.49,24.25,16.05-20.63,54.74Z"/>
  <path class="st0" d="M434.51,128.15c-12.51,7.68-26.91-21.07-17.62-27.23,11.53-5.97,27.42,20.89,17.62,27.23Z"/>
  <polygon points="887.62 256.16 834.14 217.64 884.18 183.35 887.62 256.16"/>
  <polygon points="684.75 233.46 612.8 233.99 656.42 184.16 684.75 233.46"/>
  <polygon points="747.3 256.03 729.1 273.47 721.16 256.28 747.3 256.03"/>
</svg>